<?xml version="1.0" encoding="UTF-8"?>
<svg width="200.32" height="152.24" version="1.1" viewBox="0 0 150.24 114.18" xmlns="http://www.w3.org/2000/svg" xmlns:xlink="http://www.w3.org/1999/xlink">
<defs>
<symbol id="d" overflow="visible">
<path d="m2.2188-3.6562v-2.4375c0-0.34375 0.015625-0.40625 0.48438-0.40625h1.2344c0.96875 0 1.3125 0.84375 1.3125 1.375 0 0.64062-0.48438 1.4688-1.5938 1.4688zm2.3438 0.09375c0.96875-0.1875 1.6562-0.82812 1.6562-1.5625 0-0.85938-0.92188-1.6875-2.2188-1.6875h-3.6406v0.3125h0.23438c0.76562 0 0.79688 0.10938 0.79688 0.46875v5.25c0 0.35938-0.03125 0.46875-0.79688 0.46875h-0.23438v0.3125h3.9062c1.3281 0 2.2188-0.89062 2.2188-1.8281 0-0.85938-0.8125-1.6094-1.9219-1.7344zm-0.60938 3.25h-1.25c-0.46875 0-0.48438-0.0625-0.48438-0.39062v-2.7188h1.875c0.98438 0 1.4062 0.92188 1.4062 1.5938 0 0.70312-0.53125 1.5156-1.5469 1.5156z"/>
</symbol>
<symbol id="c" overflow="visible">
<path d="m3.4844-3.875-1.2812-0.29688c-0.625-0.15625-1-0.6875-1-1.2656 0-0.70312 0.53125-1.3125 1.3125-1.3125 1.6562 0 1.875 1.6406 1.9375 2.0781 0.015625 0.0625 0.015625 0.125 0.125 0.125 0.125 0 0.125-0.046875 0.125-0.23438v-2c0-0.17188 0-0.25-0.10938-0.25-0.0625 0-0.078125 0.015625-0.14062 0.14062l-0.35938 0.5625c-0.29688-0.29688-0.70312-0.70312-1.5938-0.70312-1.1094 0-1.9375 0.875-1.9375 1.9375 0 0.82812 0.53125 1.5625 1.2969 1.8281 0.10938 0.03125 0.625 0.15625 1.3281 0.32812 0.26562 0.0625 0.5625 0.14062 0.84375 0.5 0.20312 0.26562 0.3125 0.59375 0.3125 0.92188 0 0.70312-0.5 1.4219-1.3438 1.4219-0.28125 0-1.0469-0.046875-1.5781-0.53125-0.57812-0.54688-0.60938-1.1719-0.60938-1.5312-0.015625-0.10938-0.09375-0.10938-0.125-0.10938-0.125 0-0.125 0.078125-0.125 0.25v2c0 0.17188 0 0.23438 0.10938 0.23438 0.0625 0 0.078125-0.015625 0.14062-0.125 0-0.015625 0.03125-0.046875 0.35938-0.57812 0.3125 0.34375 0.95312 0.70312 1.8438 0.70312 1.1562 0 1.9531-0.96875 1.9531-2.0781 0-0.98438-0.65625-1.8125-1.4844-2.0156z"/>
</symbol>
<symbol id="b" overflow="visible">
<path d="m5.7969-2.2969c0 1.4062-0.96875 2.2031-1.9062 2.2031-0.46875 0-1.6406-0.25-1.6406-2.1406v-3.7969c0-0.35938 0.015625-0.46875 0.78125-0.46875h0.23438v-0.3125c-0.34375 0.03125-1.0781 0.03125-1.4688 0.03125-0.375 0-1.125 0-1.4688-0.03125v0.3125h0.23438c0.76562 0 0.79688 0.10938 0.79688 0.46875v3.7656c0 1.3906 1.1562 2.4844 2.5156 2.4844 1.1406 0 2.0312-0.92188 2.2031-2.0625 0.03125-0.20312 0.03125-0.29688 0.03125-0.6875v-3.1875c0-0.32812 0-0.78125 1.0312-0.78125v-0.3125c-0.35938 0.015625-0.84375 0.03125-1.1719 0.03125-0.35938 0-0.82812-0.015625-1.1875-0.03125v0.3125c1.0156 0 1.0156 0.46875 1.0156 0.73438z"/>
</symbol>
<symbol id="a" overflow="visible">
<path d="m1.3594-0.78125c0 0.35938-0.03125 0.46875-0.79688 0.46875h-0.23438v0.3125h5.75l0.42188-2.5781h-0.25c-0.25 1.5469-0.48438 2.2656-2.1875 2.2656h-1.3281c-0.46875 0-0.48438-0.0625-0.48438-0.39062v-2.6719h0.89062c0.96875 0 1.0781 0.32812 1.0781 1.1719h0.25v-2.6406h-0.25c0 0.85938-0.10938 1.1719-1.0781 1.1719h-0.89062v-2.4062c0-0.32812 0.015625-0.39062 0.48438-0.39062h1.2812c1.5312 0 1.7969 0.54688 1.9531 1.9375h0.25l-0.28125-2.25h-5.6094v0.3125h0.23438c0.76562 0 0.79688 0.10938 0.79688 0.46875z"/>
</symbol>
<clipPath id="f">
<path d="m0 112h151.43v2.1836h-151.43z"/>
</clipPath>
<clipPath id="e">
<path d="m34 88h29v26.184h-29z"/>
</clipPath>
</defs>
<g transform="translate(-.59766 -6.5458e-5)">
<path transform="matrix(1 0 0 -1 9.102 113.58)" d="m-4.375e-4 -9.375e-4v56.695h28.348v-56.695z" fill="#d1d1d1" stroke="#000" stroke-miterlimit="10" stroke-width=".3985"/>
<path transform="matrix(1 0 0 -1 9.102 113.58)" d="m104.88-9.375e-4v113.39h28.348v-113.39z" fill="#d1d1d1" stroke="#000" stroke-miterlimit="10" stroke-width=".3985"/>
<path transform="matrix(1 0 0 -1 9.102 113.58)" d="m51.023-9.375e-4v28.348h28.348v-28.348z" fill="#d1d1d1" stroke="#000" stroke-miterlimit="10" stroke-width=".3985"/>
<g clip-path="url(#f)">
<path transform="matrix(1 0 0 -1 9.102 113.58)" d="m-8.5043-9.375e-4h150.24" fill="none" stroke="#000" stroke-miterlimit="10" stroke-width="1.1955"/>
</g>
<path transform="matrix(1 0 0 -1 9.102 113.58)" d="m16.992 65.198c0 1.5547-1.2617 2.8164-2.8203 2.8164-1.5547 0-2.8164-1.2617-2.8164-2.8164 0-1.5586 1.2617-2.8203 2.8164-2.8203 1.5586 0 2.8203 1.2617 2.8203 2.8203z" fill="none" stroke="#000" stroke-miterlimit="10" stroke-width=".79701"/>
<g>
<use x="16.979" y="41.652" xlink:href="#d"/>
<use x="24.035999" y="41.652" xlink:href="#c"/>
</g>
<g clip-path="url(#e)">
<path transform="matrix(1 0 0 -1 9.102 113.58)" d="m42.503 11.339c0 1.5547-1.2617 2.8164-2.8164 2.8164-1.5586 0-2.8203-1.2617-2.8203-2.8164 0-1.5586 1.2617-2.8203 2.8203-2.8203 1.5547 0 2.8164 1.2617 2.8164 2.8203z" fill="none" stroke="#000" stroke-miterlimit="10" stroke-width=".79701"/>
</g>
<g>
<use x="41.660999" y="95.510002" xlink:href="#b"/>
<use x="49.132999" y="95.510002" xlink:href="#a"/>
</g>
<path transform="matrix(1 0 0 -1 9.102 113.58)" d="m16.933 63.542 11.414-6.8477 10.559-42.234" fill="none" stroke="#f00" stroke-dasharray="2.98883, 2.98883" stroke-miterlimit="10" stroke-width=".3985"/>
<path transform="matrix(1 0 0 -1 9.102 113.58)" d="m17.293 64.417 87.59-21.898-53.859-14.172-9.5547-14.332" fill="none" stroke="#00f" stroke-dasharray="2.98883, 2.98883" stroke-miterlimit="10" stroke-width=".3985"/>
</g>
</svg>
