<?xml version="1.0" standalone="no"?>
<!DOCTYPE svg PUBLIC "-//W3C//DTD SVG 20010904//EN"
 "http://www.w3.org/TR/2001/REC-SVG-20010904/DTD/svg10.dtd">
<svg version="1.0" xmlns="http://www.w3.org/2000/svg"
 width="512.000000pt" height="512.000000pt" viewBox="0 0 512.000000 512.000000"
 preserveAspectRatio="xMidYMid meet">
<metadata>
Created by potrace 1.14, written by Peter Selinger 2001-2017
</metadata>
<g transform="translate(0.000000,512.000000) scale(0.100000,-0.100000)"
fill="#000000" stroke="none">
<path d="M3316 5089 c-110 -30 -130 -179 -31 -238 63 -37 132 -22 175 40 32
44 24 119 -17 161 -34 33 -84 48 -127 37z"/>
<path d="M987 4660 c-37 -11 -55 -27 -74 -63 -42 -82 11 -180 102 -188 47 -3
66 3 99 32 48 41 57 101 26 156 -12 22 -30 44 -40 50 -26 17 -81 23 -113 13z"/>
<path d="M2045 4556 c-51 -13 -111 -44 -158 -82 -63 -51 -122 -172 -130 -263
-2 -32 -9 -37 -172 -133 -94 -55 -182 -105 -197 -111 -16 -6 -28 -15 -28 -19
0 -4 -4 -8 -9 -8 -7 0 -205 -113 -728 -416 -29 -17 -43 -32 -44 -47 0 -12 -1
-147 -1 -300 l0 -278 -36 -19 c-21 -11 -44 -25 -52 -30 -33 -22 -241 -140
-247 -140 -4 0 -14 -6 -22 -14 -9 -8 -38 -26 -66 -41 -27 -14 -68 -37 -90 -51
-22 -13 -46 -27 -52 -30 -10 -5 -12 -102 -11 -430 1 -233 4 -428 7 -432 6 -9
228 -142 237 -142 2 0 10 -5 17 -10 12 -11 483 -285 586 -342 30 -16 123 -69
205 -117 163 -95 719 -416 776 -448 19 -11 150 -87 290 -168 140 -81 375 -217
521 -301 146 -85 277 -154 290 -154 13 0 40 10 59 22 73 44 136 79 153 85 9 3
17 9 17 14 0 5 4 9 9 9 5 0 113 61 241 135 l233 135 34 -20 c19 -11 40 -20 48
-20 12 0 266 140 325 180 14 9 51 31 83 49 32 18 61 40 64 48 3 8 -4 24 -16
37 l-22 23 153 88 c84 49 166 96 181 104 16 9 36 21 45 26 28 17 204 118 243
140 210 117 329 193 333 210 2 11 3 211 3 445 l-2 425 -210 123 c-115 68 -223
130 -240 138 -16 8 -57 31 -90 51 -33 19 -80 47 -105 61 -25 13 -47 27 -50 29
-2 2 -6 145 -7 316 -2 271 -4 313 -18 323 -9 7 -116 69 -238 140 -461 265
-502 290 -498 305 2 8 4 43 4 79 0 164 -139 285 -316 275 -65 -4 -122 -23
-171 -58 -28 -20 -29 -20 -60 -1 -28 17 -272 158 -356 206 -19 11 -55 32 -80
47 -25 14 -58 34 -75 44 -16 9 -44 25 -62 34 -18 9 -34 27 -38 42 -20 80 -97
166 -191 212 -54 27 -79 33 -142 35 -42 1 -99 -4 -127 -10z"/>
<path d="M4344 3980 c-35 -8 -80 -38 -90 -60 -14 -31 -15 -92 -4 -121 26 -62
113 -93 177 -62 53 25 75 67 69 128 -9 80 -77 131 -152 115z"/>
</g>
</svg>
