<?xml version="1.0" encoding="UTF-8" standalone="no"?>
<svg
   version="1.0"
   width="165.71761pt"
   height="165.71761pt"
   viewBox="0 0 165.71761 165.71761"
   preserveAspectRatio="xMidYMid"
   id="svg48"
   xmlns="http://www.w3.org/2000/svg"
   xmlns:svg="http://www.w3.org/2000/svg">
  <defs
     id="defs52" />
  <metadata
     id="metadata2">
Created by potrace 1.16, written by Peter Selinger 2001-2019
</metadata>
  <g
     id="g46"
     transform="translate(-17.143199,-17.1392)">
    <g
       transform="matrix(0.02381,0,0,-0.02381,0,200)"
       fill="#000000"
       stroke="none"
       id="g44"
       style="display:inline">
      <path
         d="m 720,6840 v -840 h 840 840 v 840 840 H 1560 720 Z m 1440,0 V 6240 H 1560 960 v 600 600 h 600 600 z"
         id="path6"
         style="display:inline" />
      <path
         d="m 1200,6840 v -360 h 360 360 v 360 360 h -360 -360 z"
         id="path8"
         style="display:inline" />
      <path
         d="m 2640,7560 v -120 h 120 120 v -600 -600 h -120 -120 v -240 -240 h 120 120 v -120 -120 h -240 -240 v 120 120 h -120 -120 v -120 -120 h -120 -120 v 120 120 h -240 -240 v -120 -120 h 120 120 v -120 -120 h 240 240 v -120 -120 h 120 120 v 120 120 h 120 120 v -120 -120 h 120 120 v -240 -240 h -120 -120 v -120 -120 h 120 120 v -120 -120 h -240 -240 v 120 120 h -120 -120 v 120 120 h 120 120 v 120 120 h -120 -120 v -120 -120 h -120 -120 v -240 -240 h -120 -120 v 120 120 H 1560 1440 V 4080 3840 H 1320 1200 V 3720 3600 H 960 720 v -480 -480 h 480 480 v 120 120 h -240 -240 v 360 360 h 120 120 v 120 120 h 120 120 v -360 -360 h 120 120 v -120 -120 h 120 120 v -120 -120 h 240 240 v -120 -120 h 120 120 v -120 -120 h 240 240 v -240 -240 h -120 -120 v -120 -120 h -120 -120 v 240 240 h -120 -120 v -240 -240 h 120 120 V 1320 1200 H 2760 2640 V 960 720 h 120 120 v 120 120 h 120 120 V 840 720 h 480 480 v 120 120 h -240 -240 v 120 120 h 480 480 v 120 120 h 120 120 v -120 -120 h 120 120 V 1080 960 h 120 120 v 120 120 h -120 -120 v 120 120 h -120 -120 v 240 240 h 120 120 v 240 240 h 120 120 v -480 -480 h 120 120 v -120 -120 h 120 120 v 120 120 h 120 120 v 120 120 h 480 480 v 120 120 h -120 -120 v 120 120 h 120 120 v 240 240 h 240 240 v 120 120 h -120 -120 v 120 120 h -120 -120 v 120 120 h 240 240 v -120 -120 h 120 120 v 120 120 h -120 -120 v 120 120 h -240 -240 v 120 120 h 120 120 v 240 240 h 120 120 v -240 -240 h 120 120 v 600 600 h -120 -120 v -240 -240 h -600 -600 v 240 240 h 120 120 v -120 -120 h 240 240 v 120 120 h 120 120 v 120 120 h 120 120 v 120 120 h 120 120 v 120 120 h -120 -120 v -120 -120 h -240 -240 v -240 -240 h -120 -120 v 240 240 h -240 -240 v 120 120 h -120 -120 v -120 -120 h 120 120 v -120 -120 h -120 -120 v -120 -120 h -480 -480 v 120 120 h -240 -240 v 240 240 h -120 -120 v 480 480 h -120 -120 v 240 240 h 120 120 v -120 -120 h 120 120 v 120 120 h 480 480 v 120 120 h -240 -240 v 120 120 h -120 -120 v -120 -120 h -120 -120 v -120 -120 h -120 -120 v 240 240 h -240 -240 v -120 -120 h 120 120 v -120 -120 h -240 -240 v -120 -120 h -120 -120 v -120 -120 h -120 -120 v 360 360 h 120 120 v 120 120 h -360 -360 z m 1200,-960 v -120 h 120 120 v -240 -240 h -120 -120 v -120 -120 h 120 120 v -120 -120 h -120 -120 v 120 120 h -120 -120 v 120 120 h -120 -120 v 120 120 h 120 120 v -120 -120 h 120 120 v 240 240 h -240 -240 v 120 120 h 240 240 z m -720,-600 v -240 h -120 -120 v 240 240 h 120 120 z m -720,-600 v -120 h -120 -120 v 120 120 h 120 120 z m 720,-240 v -120 h -120 -120 v 120 120 h 120 120 z m 960,-120 v -240 h 240 240 v 120 120 h 120 120 v -120 -120 h 360 360 v -240 -240 h -360 -360 v -120 -120 h 480 480 v -120 -120 h 240 240 v 240 240 h 360 360 v -240 -240 h -120 -120 v -120 -120 h 120 120 v -120 -120 h -120 -120 v 120 120 h -120 -120 v -240 -240 h -240 -240 v -120 -120 h -120 -120 v 480 480 h -120 -120 v -120 -120 h -120 -120 v 120 120 h -120 -120 v -240 -240 h 120 120 v -120 -120 h 120 120 v -120 -120 h -120 -120 v -120 -120 h 120 120 v -120 -120 h -120 -120 v 120 120 h -120 -120 v -120 -120 h -120 -120 v -240 -240 h -120 -120 v -120 -120 h -360 -360 v -120 -120 h -120 -120 v -120 -120 h -120 -120 v 120 120 h 120 120 v 120 120 h 120 120 v 120 120 h -120 -120 v 360 360 h 120 120 v 120 120 h -120 -120 v 120 120 h 120 120 v -120 -120 h 120 120 v 360 360 h 120 120 v -240 -240 h 120 120 v -120 -120 h 120 120 v 240 240 h -120 -120 v 120 120 h 120 120 v 240 240 h -120 -120 v 240 240 h -360 -360 v -120 -120 h 240 240 v -240 -240 h -240 -240 v -240 -240 h -240 -240 v 120 120 h -120 -120 v 240 240 h 120 120 v 120 120 h -240 -240 v 120 120 h 120 120 v 120 120 h 120 120 v -240 -240 h 120 120 v 120 120 h 120 120 v 120 120 h -120 -120 v 240 240 h 240 240 z m 1920,-480 v -240 h -120 -120 v 240 240 h 120 120 z M 2400,3960 v -120 h -120 -120 v -120 -120 h 120 120 v -120 -120 h -240 -240 v 360 360 h 240 240 z m 480,-600 v -240 h 240 240 v -120 -120 h -240 -240 v -120 -120 h -120 -120 v 480 480 h 120 120 z m -480,-360 v -120 h -120 -120 v 120 120 h 120 120 z m 960,-480 v -120 h -120 -120 v 120 120 h 120 120 z m 3120,-240 v -360 h -360 -360 v 360 360 h 360 360 z m -720,-720 v -120 h -120 -120 v 120 120 h 120 120 z"
         id="path10"
         style="display:inline" />
      <path
         d="m 4560,4680 v -120 h 120 120 v 120 120 h -120 -120 z"
         id="path12"
         style="display:inline" />
      <path
         d="m 3360,3840 v -240 h 120 120 v 120 120 h 120 120 v 120 120 h -240 -240 z"
         id="path14"
         style="display:inline" />
      <path
         d="m 6480,3960 v -120 h 120 120 v 120 120 h -120 -120 z"
         id="path16" />
      <path
         d="m 4080,2640 v -240 h 120 120 v -240 -240 h 120 120 v 480 480 h -240 -240 z"
         id="path18" />
      <path
         d="m 4800,2760 v -120 h 120 120 v 120 120 h -120 -120 z"
         id="path20" />
      <path
         d="m 6000,2280 v -120 h 120 120 v 120 120 h -120 -120 z"
         id="path22" />
      <path
         d="m 6000,6840 v -840 h 840 840 v 840 840 h -840 -840 z m 1440,0 v -600 h -600 -600 v 600 600 h 600 600 z"
         id="path24" />
      <path
         d="m 6480,6840 v -360 h 360 360 v 360 360 h -360 -360 z"
         id="path26" />
      <path
         d="m 4800,6840 v -120 h -120 -120 v -360 -360 h 120 120 v 120 120 h 120 120 v -120 -120 h 120 120 v -360 -360 h 120 120 v 240 240 h 120 120 v 360 360 h -120 -120 v 120 120 h -240 -240 v 120 120 h -120 -120 z m 720,-600 v -240 h -120 -120 v 120 120 h -120 -120 v 120 120 h 240 240 z"
         id="path28" />
      <path
         d="m 720,5640 v -120 h 120 120 v -120 -120 h 120 120 V 5040 4800 H 1080 960 v 120 120 H 840 720 v -360 -360 h 120 120 v -120 -120 h 120 120 v 120 120 H 1080 960 v 120 120 h 360 360 v 120 120 h 120 120 v 120 120 h -240 -240 v 120 120 h -120 -120 v 240 240 H 960 720 Z"
         id="path30" />
      <path
         d="m 4800,5640 v -120 h 120 120 v 120 120 h -120 -120 z"
         id="path32" />
      <path
         d="M 720,1560 V 720 h 840 840 v 840 840 H 1560 720 Z m 1440,0 V 960 H 1560 960 v 600 600 h 600 600 z"
         id="path34" />
      <path
         d="m 1200,1560 v -360 h 360 360 v 360 360 h -360 -360 z"
         id="path36" />
      <path
         d="m 7440,1920 v -240 h -120 -120 v -120 -120 h -120 -120 v -120 -120 h -120 -120 v 120 120 H 6480 6240 V 1320 1200 H 6120 6000 V 960 720 h 120 120 v 120 120 h 120 120 V 840 720 h 120 120 v 120 120 h 240 240 v 120 120 h 120 120 V 1080 960 h 120 120 v 600 600 h -120 -120 z"
         id="path38" />
      <path
         d="M 4320,840 V 720 h 120 120 v 120 120 h -120 -120 z"
         id="path40" />
      <path
         d="M 5520,840 V 720 h 120 120 v 120 120 h -120 -120 z"
         id="path42" />
    </g>
  </g>
</svg>
