<?xml version="1.0" standalone="no"?>
<!DOCTYPE svg PUBLIC "-//W3C//DTD SVG 20010904//EN"
 "http://www.w3.org/TR/2001/REC-SVG-20010904/DTD/svg10.dtd">
<svg version="1.0" xmlns="http://www.w3.org/2000/svg"
 width="200.000000pt" height="200.000000pt" viewBox="0 0 200.000000 200.000000"
 preserveAspectRatio="xMidYMid meet">
<metadata>
Created by potrace 1.16, written by Peter Selinger 2001-2019
</metadata><g><rect x="0" y="0" width="200" height="200" fill="#ffffff" />
<g transform="translate(0.000000,200.000000) scale(0.023810,-0.023810)"
fill="#000000" stroke="none">
<path d="M720 6840 l0 -840 840 0 840 0 0 840 0 840 -840 0 -840 0 0 -840z
m1440 0 l0 -600 -600 0 -600 0 0 600 0 600 600 0 600 0 0 -600z"/>
<path d="M1200 6840 l0 -360 360 0 360 0 0 360 0 360 -360 0 -360 0 0 -360z"/>
<path d="M2640 7560 l0 -120 120 0 120 0 0 -600 0 -600 -120 0 -120 0 0 -240
0 -240 120 0 120 0 0 -120 0 -120 -240 0 -240 0 0 120 0 120 -120 0 -120 0 0
-120 0 -120 -120 0 -120 0 0 120 0 120 -240 0 -240 0 0 -120 0 -120 120 0 120
0 0 -120 0 -120 240 0 240 0 0 -120 0 -120 120 0 120 0 0 120 0 120 120 0 120
0 0 -120 0 -120 120 0 120 0 0 -240 0 -240 -120 0 -120 0 0 -120 0 -120 120 0
120 0 0 -120 0 -120 -240 0 -240 0 0 120 0 120 -120 0 -120 0 0 120 0 120 120
0 120 0 0 120 0 120 -120 0 -120 0 0 -120 0 -120 -120 0 -120 0 0 -240 0 -240
-120 0 -120 0 0 120 0 120 -120 0 -120 0 0 -240 0 -240 -120 0 -120 0 0 -120
0 -120 -240 0 -240 0 0 -480 0 -480 480 0 480 0 0 120 0 120 -240 0 -240 0 0
360 0 360 120 0 120 0 0 120 0 120 120 0 120 0 0 -360 0 -360 120 0 120 0 0
-120 0 -120 120 0 120 0 0 -120 0 -120 240 0 240 0 0 -120 0 -120 120 0 120 0
0 -120 0 -120 240 0 240 0 0 -240 0 -240 -120 0 -120 0 0 -120 0 -120 -120 0
-120 0 0 240 0 240 -120 0 -120 0 0 -240 0 -240 120 0 120 0 0 -120 0 -120
-120 0 -120 0 0 -240 0 -240 120 0 120 0 0 120 0 120 120 0 120 0 0 -120 0
-120 480 0 480 0 0 120 0 120 -240 0 -240 0 0 120 0 120 480 0 480 0 0 120 0
120 120 0 120 0 0 -120 0 -120 120 0 120 0 0 -120 0 -120 120 0 120 0 0 120 0
120 -120 0 -120 0 0 120 0 120 -120 0 -120 0 0 240 0 240 120 0 120 0 0 240 0
240 120 0 120 0 0 -480 0 -480 120 0 120 0 0 -120 0 -120 120 0 120 0 0 120 0
120 120 0 120 0 0 120 0 120 480 0 480 0 0 120 0 120 -120 0 -120 0 0 120 0
120 120 0 120 0 0 240 0 240 240 0 240 0 0 120 0 120 -120 0 -120 0 0 120 0
120 -120 0 -120 0 0 120 0 120 240 0 240 0 0 -120 0 -120 120 0 120 0 0 120 0
120 -120 0 -120 0 0 120 0 120 -240 0 -240 0 0 120 0 120 120 0 120 0 0 240 0
240 120 0 120 0 0 -240 0 -240 120 0 120 0 0 600 0 600 -120 0 -120 0 0 -240
0 -240 -600 0 -600 0 0 240 0 240 120 0 120 0 0 -120 0 -120 240 0 240 0 0
120 0 120 120 0 120 0 0 120 0 120 120 0 120 0 0 120 0 120 120 0 120 0 0 120
0 120 -120 0 -120 0 0 -120 0 -120 -240 0 -240 0 0 -240 0 -240 -120 0 -120 0
0 240 0 240 -240 0 -240 0 0 120 0 120 -120 0 -120 0 0 -120 0 -120 120 0 120
0 0 -120 0 -120 -120 0 -120 0 0 -120 0 -120 -480 0 -480 0 0 120 0 120 -240
0 -240 0 0 240 0 240 -120 0 -120 0 0 480 0 480 -120 0 -120 0 0 240 0 240
120 0 120 0 0 -120 0 -120 120 0 120 0 0 120 0 120 480 0 480 0 0 120 0 120
-240 0 -240 0 0 120 0 120 -120 0 -120 0 0 -120 0 -120 -120 0 -120 0 0 -120
0 -120 -120 0 -120 0 0 240 0 240 -240 0 -240 0 0 -120 0 -120 120 0 120 0 0
-120 0 -120 -240 0 -240 0 0 -120 0 -120 -120 0 -120 0 0 -120 0 -120 -120 0
-120 0 0 360 0 360 120 0 120 0 0 120 0 120 -360 0 -360 0 0 -120z m1200 -960
l0 -120 120 0 120 0 0 -240 0 -240 -120 0 -120 0 0 -120 0 -120 120 0 120 0 0
-120 0 -120 -120 0 -120 0 0 120 0 120 -120 0 -120 0 0 120 0 120 -120 0 -120
0 0 120 0 120 120 0 120 0 0 -120 0 -120 120 0 120 0 0 240 0 240 -240 0 -240
0 0 120 0 120 240 0 240 0 0 -120z m-720 -600 l0 -240 -120 0 -120 0 0 240 0
240 120 0 120 0 0 -240z m-720 -600 l0 -120 -120 0 -120 0 0 120 0 120 120 0
120 0 0 -120z m720 -240 l0 -120 -120 0 -120 0 0 120 0 120 120 0 120 0 0
-120z m960 -120 l0 -240 240 0 240 0 0 120 0 120 120 0 120 0 0 -120 0 -120
360 0 360 0 0 -240 0 -240 -360 0 -360 0 0 -120 0 -120 480 0 480 0 0 -120 0
-120 240 0 240 0 0 240 0 240 360 0 360 0 0 -240 0 -240 -120 0 -120 0 0 -120
0 -120 120 0 120 0 0 -120 0 -120 -120 0 -120 0 0 120 0 120 -120 0 -120 0 0
-240 0 -240 -240 0 -240 0 0 -120 0 -120 -120 0 -120 0 0 480 0 480 -120 0
-120 0 0 -120 0 -120 -120 0 -120 0 0 120 0 120 -120 0 -120 0 0 -240 0 -240
120 0 120 0 0 -120 0 -120 120 0 120 0 0 -120 0 -120 -120 0 -120 0 0 -120 0
-120 120 0 120 0 0 -120 0 -120 -120 0 -120 0 0 120 0 120 -120 0 -120 0 0
-120 0 -120 -120 0 -120 0 0 -240 0 -240 -120 0 -120 0 0 -120 0 -120 -360 0
-360 0 0 -120 0 -120 -120 0 -120 0 0 -120 0 -120 -120 0 -120 0 0 120 0 120
120 0 120 0 0 120 0 120 120 0 120 0 0 120 0 120 -120 0 -120 0 0 360 0 360
120 0 120 0 0 120 0 120 -120 0 -120 0 0 120 0 120 120 0 120 0 0 -120 0 -120
120 0 120 0 0 360 0 360 120 0 120 0 0 -240 0 -240 120 0 120 0 0 -120 0 -120
120 0 120 0 0 240 0 240 -120 0 -120 0 0 120 0 120 120 0 120 0 0 240 0 240
-120 0 -120 0 0 240 0 240 -360 0 -360 0 0 -120 0 -120 240 0 240 0 0 -240 0
-240 -240 0 -240 0 0 -240 0 -240 -240 0 -240 0 0 120 0 120 -120 0 -120 0 0
240 0 240 120 0 120 0 0 120 0 120 -240 0 -240 0 0 120 0 120 120 0 120 0 0
120 0 120 120 0 120 0 0 -240 0 -240 120 0 120 0 0 120 0 120 120 0 120 0 0
120 0 120 -120 0 -120 0 0 240 0 240 240 0 240 0 0 -240z m1920 -480 l0 -240
-120 0 -120 0 0 240 0 240 120 0 120 0 0 -240z m-3600 -600 l0 -120 -120 0
-120 0 0 -120 0 -120 120 0 120 0 0 -120 0 -120 -240 0 -240 0 0 360 0 360
240 0 240 0 0 -120z m480 -600 l0 -240 240 0 240 0 0 -120 0 -120 -240 0 -240
0 0 -120 0 -120 -120 0 -120 0 0 480 0 480 120 0 120 0 0 -240z m-480 -360 l0
-120 -120 0 -120 0 0 120 0 120 120 0 120 0 0 -120z m960 -480 l0 -120 -120 0
-120 0 0 120 0 120 120 0 120 0 0 -120z m3120 -240 l0 -360 -360 0 -360 0 0
360 0 360 360 0 360 0 0 -360z m-720 -720 l0 -120 -120 0 -120 0 0 120 0 120
120 0 120 0 0 -120z"/>
<path d="M4560 4680 l0 -120 120 0 120 0 0 120 0 120 -120 0 -120 0 0 -120z"/>
<path d="M3360 3840 l0 -240 120 0 120 0 0 120 0 120 120 0 120 0 0 120 0 120
-240 0 -240 0 0 -240z"/>
<path d="M6480 3960 l0 -120 120 0 120 0 0 120 0 120 -120 0 -120 0 0 -120z"/>
<path d="M4080 2640 l0 -240 120 0 120 0 0 -240 0 -240 120 0 120 0 0 480 0
480 -240 0 -240 0 0 -240z"/>
<path d="M4800 2760 l0 -120 120 0 120 0 0 120 0 120 -120 0 -120 0 0 -120z"/>
<path d="M6000 2280 l0 -120 120 0 120 0 0 120 0 120 -120 0 -120 0 0 -120z"/>
<path d="M6000 6840 l0 -840 840 0 840 0 0 840 0 840 -840 0 -840 0 0 -840z
m1440 0 l0 -600 -600 0 -600 0 0 600 0 600 600 0 600 0 0 -600z"/>
<path d="M6480 6840 l0 -360 360 0 360 0 0 360 0 360 -360 0 -360 0 0 -360z"/>
<path d="M4800 6840 l0 -120 -120 0 -120 0 0 -360 0 -360 120 0 120 0 0 120 0
120 120 0 120 0 0 -120 0 -120 120 0 120 0 0 -360 0 -360 120 0 120 0 0 240 0
240 120 0 120 0 0 360 0 360 -120 0 -120 0 0 120 0 120 -240 0 -240 0 0 120 0
120 -120 0 -120 0 0 -120z m720 -600 l0 -240 -120 0 -120 0 0 120 0 120 -120
0 -120 0 0 120 0 120 240 0 240 0 0 -240z"/>
<path d="M720 5640 l0 -120 120 0 120 0 0 -120 0 -120 120 0 120 0 0 -240 0
-240 -120 0 -120 0 0 120 0 120 -120 0 -120 0 0 -360 0 -360 120 0 120 0 0
-120 0 -120 120 0 120 0 0 120 0 120 -120 0 -120 0 0 120 0 120 360 0 360 0 0
120 0 120 120 0 120 0 0 120 0 120 -240 0 -240 0 0 120 0 120 -120 0 -120 0 0
240 0 240 -240 0 -240 0 0 -120z"/>
<path d="M4800 5640 l0 -120 120 0 120 0 0 120 0 120 -120 0 -120 0 0 -120z"/>
<path d="M720 1560 l0 -840 840 0 840 0 0 840 0 840 -840 0 -840 0 0 -840z
m1440 0 l0 -600 -600 0 -600 0 0 600 0 600 600 0 600 0 0 -600z"/>
<path d="M1200 1560 l0 -360 360 0 360 0 0 360 0 360 -360 0 -360 0 0 -360z"/>
<path d="M7440 1920 l0 -240 -120 0 -120 0 0 -120 0 -120 -120 0 -120 0 0
-120 0 -120 -120 0 -120 0 0 120 0 120 -240 0 -240 0 0 -120 0 -120 -120 0
-120 0 0 -240 0 -240 120 0 120 0 0 120 0 120 120 0 120 0 0 -120 0 -120 120
0 120 0 0 120 0 120 240 0 240 0 0 120 0 120 120 0 120 0 0 -120 0 -120 120 0
120 0 0 600 0 600 -120 0 -120 0 0 -240z"/>
<path d="M4320 840 l0 -120 120 0 120 0 0 120 0 120 -120 0 -120 0 0 -120z"/>
<path d="M5520 840 l0 -120 120 0 120 0 0 120 0 120 -120 0 -120 0 0 -120z"/>
</g>
</g></svg>
